<mxfile host="app.diagrams.net" agent="Mozilla/5.0 (Macintosh; Intel Mac OS X 10_15_7) AppleWebKit/537.36 (KHTML, like Gecko) Chrome/130.0.0.0 Safari/537.36" version="24.8.6">
  <diagram name="obc-bloc-diagram" id="099fd60b-425b-db50-ffb0-6b813814b670">
    <mxGraphModel dx="1287" dy="1740" grid="1" gridSize="10" guides="1" tooltips="1" connect="1" arrows="1" fold="1" page="1" pageScale="1" pageWidth="850" pageHeight="1100" background="none" math="0" shadow="0">
      <root>
        <mxCell id="0" />
        <mxCell id="1" parent="0" />
        <mxCell id="1dd3ca9b2b35b949-1" value="" style="whiteSpace=wrap;html=1;rounded=0;shadow=0;comic=0;labelBackgroundColor=none;strokeWidth=1;fontFamily=Verdana;fontSize=12;align=center;" parent="1" vertex="1">
          <mxGeometry x="80" y="90" width="690" height="520" as="geometry" />
        </mxCell>
        <mxCell id="10ed09ecd0ef054a-2" value="80x40" style="shape=rect;dashed=0;shadow=0;html=1;whiteSpace=wrap;rotation=270;rounded=0;comic=0;labelBackgroundColor=none;strokeWidth=1;fontFamily=Verdana;fontSize=12;align=center;" parent="1" vertex="1">
          <mxGeometry x="460" y="310" width="78" height="152" as="geometry" />
        </mxCell>
        <mxCell id="10ed09ecd0ef054a-3" value="80x40" style="shape=rect;dashed=0;shadow=0;html=1;whiteSpace=wrap;rotation=270;rounded=0;comic=0;labelBackgroundColor=none;strokeWidth=1;fontFamily=Verdana;fontSize=12;align=center;" parent="1" vertex="1">
          <mxGeometry x="133.25" y="93.25" width="122" height="173.5" as="geometry" />
        </mxCell>
        <mxCell id="10ed09ecd0ef054a-4" value="60x40" style="shape=rect;dashed=0;shadow=0;html=1;whiteSpace=wrap;rounded=0;comic=0;labelBackgroundColor=none;strokeWidth=1;fontFamily=Verdana;fontSize=12;lign=center;" parent="1" vertex="1">
          <mxGeometry x="339.5" y="180" width="319" height="30" as="geometry" />
        </mxCell>
        <mxCell id="10ed09ecd0ef054a-31" value="60x40" style="shape=rect;dashed=0;shadow=0;html=1;whiteSpace=wrap;rounded=0;comic=0;labelBackgroundColor=none;strokeWidth=1;fontFamily=Verdana;fontSize=12;align=center;" parent="1" vertex="1">
          <mxGeometry x="90" y="371" width="319" height="30" as="geometry" />
        </mxCell>
        <mxCell id="10ed09ecd0ef054a-32" value="60x40" style="shape=rect;dashed=0;shadow=0;html=1;whiteSpace=wrap;rounded=0;comic=0;labelBackgroundColor=none;strokeWidth=1;fontFamily=Verdana;fontSize=12;align=center;" parent="1" vertex="1">
          <mxGeometry x="141" y="550" width="319" height="30" as="geometry" />
        </mxCell>
        <mxCell id="10ed09ecd0ef054a-33" value="60x40" style="shape=rect;dashed=0;shadow=0;html=1;whiteSpace=wrap;rounded=0;comic=0;labelBackgroundColor=none;strokeWidth=1;fontFamily=Verdana;fontSize=12;align=center;" parent="1" vertex="1">
          <mxGeometry x="150" y="432" width="319" height="30" as="geometry" />
        </mxCell>
        <mxCell id="10ed09ecd0ef054a-34" value="60x40" style="shape=rect;dashed=0;shadow=0;html=1;whiteSpace=wrap;rounded=0;comic=0;labelBackgroundColor=none;strokeWidth=1;fontFamily=Verdana;fontSize=12;align=center;" parent="1" vertex="1">
          <mxGeometry x="133.25" y="490" width="319" height="30" as="geometry" />
        </mxCell>
        <mxCell id="10ed09ecd0ef054a-57" value="60x40" style="shape=rect;dashed=0;shadow=0;html=1;whiteSpace=wrap;rounded=0;comic=0;labelBackgroundColor=none;strokeWidth=1;fontFamily=Verdana;fontSize=12;align=center;" parent="1" vertex="1">
          <mxGeometry x="133.25" y="310" width="319" height="30" as="geometry" />
        </mxCell>
        <mxCell id="10ed09ecd0ef054a-98" value="60x40" style="shape=rect;dashed=0;shadow=0;html=1;whiteSpace=wrap;rounded=0;comic=0;labelBackgroundColor=none;strokeWidth=1;fontFamily=Verdana;fontSize=12;align=center;rotation=-90;" parent="1" vertex="1">
          <mxGeometry x="545" y="310" width="225" height="30" as="geometry" />
        </mxCell>
        <mxCell id="10ed09ecd0ef054a-99" value="40x40" style="shape=rect;dashed=0;shadow=0;html=1;whiteSpace=wrap;rounded=0;comic=0;labelBackgroundColor=none;strokeWidth=1;fontFamily=Verdana;fontSize=12;align=center;" parent="1" vertex="1">
          <mxGeometry x="538" y="510" width="161" height="20" as="geometry" />
        </mxCell>
        <mxCell id="k0fRo-i5VPMHgVZJWNBX-4" value="" style="shape=trapezoid;perimeter=trapezoidPerimeter;whiteSpace=wrap;html=1;fixedSize=1;" vertex="1" parent="1">
          <mxGeometry x="130" y="500" width="120" height="60" as="geometry" />
        </mxCell>
      </root>
    </mxGraphModel>
  </diagram>
</mxfile>
